<svg version="1.1" viewBox="0 0 595.28 169.89" xmlns="http://www.w3.org/2000/svg"><g fill="#0041ce"><path d="m141.56 50.64h-8.34v25.55h-5.78v-25.55h-8.3v-5.07h22.41v5.07z"/><path d="m155.86 45.56c8.91 0 14.87 2.56 14.87 15.31 0 11.82-5.96 15.31-14.87 15.31h-9.93v-30.62h9.93zm-0.27 25.64c5.91 0 9.18-2.25 9.18-10.32 0-8.52-3.4-10.41-9.18-10.41h-3.88v20.74h3.88z"/><path d="M196.93,65.33l-15.62,1.02c.13,4.01,2.07,5.82,6.84,5.82,2.87,0,6.13-.84,7.77-1.63v4.5c-1.41.84-4.85,1.59-8.74,1.59-7.24,0-11.43-2.69-11.43-12.35s4.19-12.35,11.43-12.35c8.25,0,9.97,4.68,9.97,10.28,0,1.19-.09,2.29-.22,3.13ZM192.04,61.62c0-2.96-.62-5.47-4.85-5.47s-5.74,2.16-5.87,6.27l10.72-.79Z"/><path d="M223.72,59.86v16.33h-5.52v-14.78c0-3.35-.75-4.9-4.1-4.9-2.82,0-4.81.79-5.82,3.8v15.88h-5.52v-23.83h5.52v3c1.37-2.47,4.19-3.44,7.5-3.44,6,0,7.94,2.87,7.94,7.94Z"/><path d="M251.86,52.36v22.02c0,6.57-3.4,10.63-12.66,10.63-2.12,0-4.68-.27-6.44-.57v-4.46c1.81.49,4.06.66,6.13.66,5.25,0,7.5-1.72,7.5-6.53v-1.68c-1.02,2.34-2.96,3.75-7.37,3.75-7.81,0-9.75-4.9-9.75-12.13,0-6.57,1.94-12.13,9.75-12.13,4.5,0,6.44,1.59,7.37,3.93v-3.49h5.47ZM246.61,64.05c0-4.81-1.06-7.9-6.18-7.9s-5.43,3.79-5.43,7.9c0,4.41.66,7.99,5.43,7.99,5.12,0,6.18-2.91,6.18-7.99Z"/><path d="M258.39,45.69c0-2.69.66-2.96,3.13-2.96s3.13.26,3.13,2.96-.66,3-3.13,3-3.13-.35-3.13-3ZM258.75,52.36h5.52v23.83h-5.52v-23.83Z"/><path d="M292.15,59.86v16.33h-5.52v-14.78c0-3.35-.75-4.9-4.1-4.9-2.82,0-4.81.79-5.82,3.8v15.88h-5.52v-23.83h5.52v3c1.37-2.47,4.19-3.44,7.5-3.44,6,0,7.94,2.87,7.94,7.94Z"/><path d="M318.88,65.33l-15.62,1.02c.13,4.01,2.07,5.82,6.84,5.82,2.87,0,6.13-.84,7.77-1.63v4.5c-1.41.84-4.85,1.59-8.74,1.59-7.24,0-11.43-2.69-11.43-12.35s4.19-12.35,11.43-12.35c8.25,0,9.97,4.68,9.97,10.28,0,1.19-.09,2.29-.22,3.13ZM313.99,61.62c0-2.96-.62-5.47-4.85-5.47s-5.74,2.16-5.87,6.27l10.72-.79Z"/><path d="M64.17,42.96c3.06,0,5.56,2.5,5.56,5.56s-2.5,5.56-5.56,5.56-5.56-2.5-5.56-5.56,2.5-5.56,5.56-5.56h0ZM27.22,69.7c3.06,0,5.56,2.5,5.56,5.56s-2.5,5.56-5.56,5.56-5.56-2.5-5.56-5.56,2.5-5.56,5.56-5.56h0ZM41.68,113.22c3.06,0,5.56,2.5,5.56,5.56s-2.5,5.56-5.56,5.56-5.56-2.5-5.56-5.56,2.5-5.56,5.56-5.56h0ZM86.66,113.22c3.06,0,5.56,2.5,5.56,5.56s-2.5,5.56-5.56,5.56-5.56-2.5-5.56-5.56,2.5-5.56,5.56-5.56h0ZM72.33,76.11h-16.32s-5.04,15.51-5.04,15.51l13.21,9.6,13.19-9.58-5.04-15.53h0ZM56.44,74.78l5.71-17.6c-.43-.1-.85-.23-1.26-.4l-5.84,17.99h-18.95c0,.16.01.32.01.49,0,.28-.01.56-.04.83h18.55s-4.78,14.71-4.78,14.71l-15.03-10.92c-.23.38-.49.73-.77,1.07l12.78,9.28h0s2.59,1.88,2.59,1.88l-.81,2.48h0s-5.04,15.49-5.04,15.49c.43.1.86.22,1.26.38l5.7-17.53,12.51,9.09-14.8,10.76c.3.32.57.67.82,1.04l15.11-10.98,15.1,10.98c.25-.37.52-.71.82-1.04l-14.8-10.75,12.49-9.08.54,1.66h.02s5.16,15.85,5.16,15.85c.41-.16.83-.28,1.26-.38l-5.84-17.96,2.57-1.87,12.81-9.3c-.28-.34-.54-.69-.77-1.07l-12.44,9.03-.35.26-2.26,1.64-4.77-14.72h18.56c-.03-.27-.04-.56-.04-.84,0-.16,0-.31.01-.47h-18.96s-5.84-18.01-5.84-18.01c-.41.16-.83.29-1.26.4l5.71,17.6h-15.46ZM34.21,69.78l22.54-16.37c.24.37.51.72.81,1.04l-22.61,16.42c-.22-.38-.47-.75-.74-1.09h0ZM38.28,110.57l-8.69-26.73c.43-.12.84-.27,1.24-.45l8.7,26.76c-.43.11-.85.25-1.25.41h0ZM77.77,119.14h-27.2c0-.12,0-.24,0-.36,0-.33-.02-.65-.05-.97h27.29c-.03.32-.05.64-.05.97,0,.12,0,.24,0,.36h0ZM98.75,83.84l-8.69,26.73c-.4-.17-.82-.31-1.25-.42l8.7-26.77c.4.18.81.33,1.24.45h0ZM71.6,53.41l22.54,16.37c-.27.35-.52.71-.74,1.09l-22.6-16.42c.29-.33.56-.68.81-1.05h0ZM101.13,69.7c3.06,0,5.56,2.5,5.56,5.56s-2.5,5.56-5.56,5.56-5.56-2.5-5.56-5.56,2.5-5.56,5.56-5.56h0Z" fill-rule="evenodd"/><path d="m119.15 98.07h4.32v22.91h-4.32v-22.91z"/><path d="M143.64,108.76v12.21h-4.12v-11.06c0-2.51-.56-3.66-3.07-3.66-2.11,0-3.6.59-4.36,2.84v11.88h-4.13v-17.82h4.13v2.24c1.02-1.85,3.13-2.57,5.61-2.57,4.49,0,5.94,2.15,5.94,5.94Z"/><path d="M163.8,95.89v25.08h-3.66l-.4-2.61c-.69,1.72-2.34,2.94-5.54,2.94-5.81,0-7.23-3.66-7.23-9.24,0-5.02,1.42-9.24,7.23-9.24,3.3,0,4.82,1.12,5.51,2.87v-9.8h4.09ZM159.87,112.06c0-3.6-.96-6.07-4.55-6.07s-4.06,2.87-4.06,6.07c0,3.43.5,6.04,4.06,6.04s4.55-2.21,4.55-6.04Z"/><path d="M183.6,103.15v17.82h-3.7l-.36-2.28c-1.02,1.95-3,2.61-5.51,2.61-4.49,0-5.97-2.18-5.97-5.91v-12.24h4.12v11.06c0,2.47.59,3.66,3.1,3.66,1.98,0,3.5-.56,4.19-2.84v-11.88h4.13Z"/><path d="M187.13,120.61v-3.46c1.55.5,3.7.79,5.31.79,2.28,0,3.37-.43,3.37-2.11s-.63-2.08-3.63-2.77c-3.83-.86-4.82-2.11-4.82-5.08,0-3.2,2.01-5.15,6.87-5.15,1.88,0,3.86.23,4.75.59l-.2,3.23c-.96-.36-2.81-.66-4.42-.66-2.28,0-3.14.46-3.14,1.95s.56,1.62,3.33,2.31c3.96.96,5.15,2.11,5.15,5.45,0,3.99-2.57,5.48-7.06,5.48-1.98,0-4.09-.2-5.51-.56Z"/><path d="M207.62,106.45v8.58c0,2.31.36,2.87,2.21,2.87.63,0,1.12-.03,1.62-.17v3.27c-.69.1-1.45.17-2.21.17-4.26,0-5.74-1.12-5.74-5.81v-8.91h-2.48v-3.3h2.48v-4.22h4.13v4.22h3.93v3.3h-3.93Z"/><path d="M223.79,102.82l-.13,3.7h-.43c-2.21,0-4.52.79-5.15,3.86v10.59h-4.13v-17.82h4.13v3.2c1.06-2.94,3.27-3.53,5.35-3.53h.36Z"/><path d="M225.8,98.17c0-2.01.5-2.21,2.34-2.21s2.34.2,2.34,2.21-.5,2.25-2.34,2.25-2.34-.26-2.34-2.25ZM226.07,103.15h4.13v17.82h-4.13v-17.82Z"/><path d="M249.6,108.53v12.44h-3.66l-.43-2.28c-.89,1.55-3.07,2.61-5.94,2.61-4.06,0-6.11-1.78-6.11-5.38,0-4.19,2.61-5.68,7.23-5.68h4.79v-.79c0-2.11-.73-3.17-4.03-3.17-1.29,0-2.54.13-3.83.36v-3.53c1.35-.23,2.97-.3,4.26-.3,5.84,0,7.72,2.15,7.72,5.71ZM245.47,115.53v-2.34h-4.22c-2.61,0-3.7.5-3.7,2.61,0,1.55.83,2.28,2.91,2.28,2.51,0,4.26-.99,5.02-2.54Z"/><path d="M254.02,116.82v-20.93h4.13v19.94c0,1.68.4,2.05,1.55,2.05.36,0,.73-.03,1.09-.13v3.23c-.59.13-1.25.2-1.98.2-3.53,0-4.79-1.32-4.79-4.36Z"/><path d="m278.24 98.07c6.67 0 11.12 1.91 11.12 11.45 0 8.85-4.46 11.45-11.12 11.45h-7.43v-22.91h7.43zm-0.2 19.18c4.42 0 6.87-1.68 6.87-7.72 0-6.37-2.54-7.79-6.87-7.79h-2.9v15.51h2.9z"/><path d="M307.51,108.53v12.44h-3.66l-.43-2.28c-.89,1.55-3.07,2.61-5.94,2.61-4.06,0-6.11-1.78-6.11-5.38,0-4.19,2.61-5.68,7.23-5.68h4.79v-.79c0-2.11-.73-3.17-4.03-3.17-1.29,0-2.54.13-3.83.36v-3.53c1.35-.23,2.97-.3,4.26-.3,5.84,0,7.72,2.15,7.72,5.71ZM303.39,115.53v-2.34h-4.22c-2.61,0-3.7.5-3.7,2.61,0,1.55.83,2.28,2.91,2.28,2.51,0,4.26-.99,5.02-2.54Z"/><path d="M316.39,106.45v8.58c0,2.31.36,2.87,2.21,2.87.63,0,1.12-.03,1.62-.17v3.27c-.69.1-1.45.17-2.21.17-4.26,0-5.74-1.12-5.74-5.81v-8.91h-2.48v-3.3h2.48v-4.22h4.13v4.22h3.93v3.3h-3.93Z"/><path d="M337.77,108.53v12.44h-3.66l-.43-2.28c-.89,1.55-3.07,2.61-5.94,2.61-4.06,0-6.11-1.78-6.11-5.38,0-4.19,2.61-5.68,7.23-5.68h4.79v-.79c0-2.11-.73-3.17-4.03-3.17-1.29,0-2.54.13-3.83.36v-3.53c1.35-.23,2.97-.3,4.26-.3,5.84,0,7.72,2.15,7.72,5.71ZM333.65,115.53v-2.34h-4.22c-2.61,0-3.7.5-3.7,2.61,0,1.55.83,2.28,2.91,2.28,2.51,0,4.26-.99,5.02-2.54Z"/><path d="M349.98,98.07h7l4.49,13.53h.2l4.62-13.53h6.8v22.91h-4.26v-18.68h-.2l-4.92,14.06h-4.42l-4.88-14.06h-.2v18.68h-4.22v-22.91Z"/><path d="M393.51,103.15v16.47c0,4.92-2.54,7.95-9.47,7.95-1.58,0-3.5-.2-4.82-.43v-3.33c1.35.36,3.04.49,4.59.49,3.93,0,5.61-1.29,5.61-4.88v-1.25c-.76,1.75-2.21,2.81-5.51,2.81-5.84,0-7.29-3.66-7.29-9.08,0-4.92,1.45-9.08,7.29-9.08,3.37,0,4.82,1.19,5.51,2.94v-2.61h4.09ZM389.58,111.9c0-3.6-.79-5.91-4.62-5.91s-4.06,2.84-4.06,5.91c0,3.3.5,5.97,4.06,5.97,3.83,0,4.62-2.18,4.62-5.97Z"/><path d="M423.67,108.99v11.98h-4.12v-11.06c0-2.51-.69-3.66-2.94-3.66-1.98,0-3.3.66-3.83,2.77v11.95h-4.12v-11.06c0-2.51-.66-3.66-2.87-3.66-1.98,0-3.2.59-3.76,2.67v12.05h-4.13v-17.82h4.13v2.11c1.02-1.75,2.67-2.44,5.05-2.44,2.77,0,4.32.92,5.12,2.64,1.02-1.95,3.1-2.64,5.58-2.64,4.09,0,5.91,2.05,5.91,6.17Z"/><path d="M432.38,106.45v8.58c0,2.31.36,2.87,2.21,2.87.63,0,1.12-.03,1.62-.17v3.27c-.69.1-1.45.17-2.21.17-4.26,0-5.74-1.12-5.74-5.81v-8.91h-2.48v-3.3h2.48v-4.22h4.13v4.22h3.93v3.3h-3.93Z"/><path d="m446.47 98.07h7.33c6.73 0 8.81 2.21 8.81 7.62 0 5.78-2.57 7.86-8.81 7.86h-3v7.43h-4.32v-22.91zm6.8 11.98c3.7 0 4.92-0.96 4.92-4.29 0-3.14-1.25-4.19-4.92-4.19h-2.47v8.48h2.47z"/><path d="M466.01,116.82v-20.93h4.13v19.94c0,1.68.4,2.05,1.55,2.05.36,0,.73-.03,1.09-.13v3.23c-.59.13-1.25.2-1.98.2-3.53,0-4.79-1.32-4.79-4.36Z"/><path d="M490.1,108.53v12.44h-3.66l-.43-2.28c-.89,1.55-3.07,2.61-5.94,2.61-4.06,0-6.11-1.78-6.11-5.38,0-4.19,2.61-5.68,7.23-5.68h4.79v-.79c0-2.11-.73-3.17-4.03-3.17-1.29,0-2.54.13-3.83.36v-3.53c1.35-.23,2.97-.3,4.26-.3,5.84,0,7.72,2.15,7.72,5.71ZM485.97,115.53v-2.34h-4.22c-2.61,0-3.7.5-3.7,2.61,0,1.55.83,2.28,2.91,2.28,2.51,0,4.26-.99,5.02-2.54Z"/><path d="M498.97,106.45v8.58c0,2.31.36,2.87,2.21,2.87.63,0,1.12-.03,1.62-.17v3.27c-.69.1-1.45.17-2.21.17-4.26,0-5.74-1.12-5.74-5.81v-8.91h-2.48v-3.3h2.48v-4.22h4.13v4.22h3.93v3.3h-3.93Z"/><path d="M510.42,103.15h3.73v3.27h-3.73v14.55h-4.13v-14.55h-2.84v-3.27h2.84v-.17c0-6.17,2.61-7.23,6.67-7.23.69,0,1.39.07,2.05.17v3.04c-.5-.1-1.06-.13-1.62-.13-2.48,0-2.97.89-2.97,4.32Z"/><path d="m515.11 112.06c0-7.23 3.14-9.24 8.55-9.24s8.58 2.01 8.58 9.24-3.13 9.24-8.58 9.24-8.55-2.01-8.55-9.24zm12.87 0c0-4.62-1.06-6.07-4.32-6.07s-4.29 1.45-4.29 6.07 1.09 6.04 4.29 6.04 4.32-1.42 4.32-6.04z"/><path d="M545.5,102.82l-.13,3.7h-.43c-2.21,0-4.52.79-5.15,3.86v10.59h-4.13v-17.82h4.13v3.2c1.06-2.94,3.27-3.53,5.35-3.53h.36Z"/><path d="M573.62,108.99v11.98h-4.12v-11.06c0-2.51-.69-3.66-2.94-3.66-1.98,0-3.3.66-3.83,2.77v11.95h-4.12v-11.06c0-2.51-.66-3.66-2.87-3.66-1.98,0-3.2.59-3.76,2.67v12.05h-4.13v-17.82h4.13v2.11c1.02-1.75,2.67-2.44,5.05-2.44,2.77,0,4.32.92,5.12,2.64,1.02-1.95,3.1-2.64,5.58-2.64,4.09,0,5.91,2.05,5.91,6.17Z"/></g></svg>
